<svg width="184" height="56" viewBox="0 0 184 56" fill="none" xmlns="http://www.w3.org/2000/svg">
<path d="M27.6698 49.221C26.8802 48.8054 24.2686 46.9982 21.7906 45.1522C18.8826 42.9866 16.7522 41.1554 14.1502 38.5854C12.3178 36.7758 11.1294 35.4806 10.079 34.1486C9.86702 33.8806 9.66182 33.6226 9.62382 33.5786C9.56382 33.5066 9.58382 33.4826 9.82382 33.3466C10.395 33.0226 10.5062 32.765 11.7218 28.9274C12.8106 25.4902 12.7066 25.7918 12.7538 25.937C12.7938 26.005 12.9818 26.9418 13.2146 28.0202C13.883 31.1386 13.9662 31.4222 14.3146 31.7718C14.5546 32.0118 14.9342 32.1862 15.341 32.2402C15.645 32.2802 16.1694 32.1322 16.4582 31.9202C16.7782 31.6882 17.2294 30.9938 18.6014 28.619C18.8934 28.1138 19.1462 27.7002 19.163 27.7002C19.163 27.7002 19.435 28.1578 19.7294 28.717C20.8394 30.823 22.0778 33.1302 22.2978 33.503C22.6698 34.1354 23.1178 34.3934 23.825 34.3862C24.3666 34.3822 24.8158 34.1622 25.1038 33.765C25.2878 33.509 25.675 32.3054 26.7166 28.7294C27.7054 25.335 28.055 24.2078 28.0958 24.281C28.1438 24.369 28.6062 26.5626 29.3882 30.4206C30.1054 33.9598 30.6402 36.5238 30.8182 37.2758C30.9262 37.7354 30.9702 37.8422 31.1502 38.0602C31.2822 38.2242 31.4582 38.3642 31.6438 38.4602C31.9078 38.5962 31.9718 38.6082 32.4254 38.6082C32.853 38.6078 32.955 38.6082 33.1918 38.4802C33.6342 38.2722 33.763 38.1002 34.1554 37.1786C34.4274 36.5426 35.3014 34.3626 35.7946 33.0942C35.8386 32.9822 35.9106 33.0942 36.539 34.3442C37.297 35.8382 37.5954 36.3714 37.7618 36.5318C37.8218 36.5878 38.0098 36.7038 38.1802 36.7838C38.765 37.0598 39.5618 36.9518 40.0046 36.5278C40.2246 36.3198 40.845 35.0806 42.3274 31.9002C42.803 30.8802 43.359 29.7118 43.5634 29.3038L43.9354 28.5618L44.0234 28.7338C44.0714 28.8258 44.443 29.7134 44.8494 30.703C45.731 32.8506 45.8318 33.0582 46.1218 33.3258L46.3458 33.5338L46.2258 33.7018C45.9898 34.0338 44.901 35.343 44.2626 36.0622C43.4438 36.9858 41.127 39.305 40.0258 40.3046C37.9582 42.1802 35.8122 43.9486 33.6798 45.5334C31.6854 47.0158 28.4714 49.1802 28.0314 49.337C27.9834 49.337 27.8298 49.297 27.6698 49.221ZM38.2578 30.3426C37.4802 28.7886 37.0262 27.9506 36.871 27.7838C36.711 27.6078 36.2822 27.3918 35.9466 27.3126C35.5506 27.2206 35.0354 27.3646 34.5718 27.7006C34.3318 27.8766 34.1498 28.2286 33.5542 29.689C33.1058 30.7878 32.997 31.0142 32.9446 30.957C32.8966 30.905 32.8926 30.873 31.5154 24.0518C30.3862 18.455 30.0686 16.9514 29.8974 16.3962C29.7774 16.0082 29.5614 15.7746 29.1222 15.5582C28.8822 15.4422 28.7942 15.4222 28.3838 15.4262C27.973 15.4274 27.8838 15.4262 27.6294 15.5662C27.0782 15.8342 27.0342 15.9062 26.609 17.2618C26.1146 18.8366 25.9926 19.2462 24.6638 23.781C24.0438 25.8974 23.4894 27.7806 23.4318 27.9658L23.3278 28.3018L23.2158 28.1378C23.0758 27.9258 22.8878 27.5806 21.9002 25.7178C20.717 23.4834 20.4458 23.073 19.9894 22.8242C19.7574 22.6962 19.6894 22.6842 19.2654 22.6842C18.717 22.6862 18.5382 22.7482 18.2082 23.0522C17.9122 23.3242 17.6666 23.6738 17.1066 24.613C16.521 25.5946 16.2742 25.9562 16.225 25.9046C16.185 25.8646 15.949 24.749 15.6638 23.3878C15.0778 20.6098 14.6938 18.8722 14.583 18.4982C14.491 18.1902 14.203 17.9194 13.7294 17.689C13.4614 17.561 13.3494 17.533 13.0642 17.533C12.7682 17.5314 12.6682 17.573 12.3534 17.709C11.7346 18.009 11.7426 17.993 11.1842 19.6774C10.2558 22.4758 8.53062 27.845 7.98342 29.639C7.86742 30.015 7.76742 30.3338 7.76342 30.3438C7.76342 30.3438 7.69142 30.3838 7.61542 30.3838C7.35942 30.3838 7.05862 29.9298 6.25302 28.337C5.09582 26.0494 4.30622 23.681 4.06382 21.7686C3.97982 21.1098 3.97982 18.5442 4.06302 17.8958C4.34302 15.7186 5.38542 13.3298 6.85462 11.499C9.04102 8.77456 12.4302 6.98336 15.9502 6.69216C17.3266 6.57616 19.411 6.81616 20.8702 7.25456C22.2762 7.67696 23.9054 8.56376 25.2466 9.63736C25.9402 10.1926 26.8534 11.1174 27.3258 11.7442C27.7426 12.2974 27.9402 12.5282 27.9966 12.5282C27.9966 12.5282 28.1606 12.3562 28.3166 12.1482C30.309 9.49776 32.7806 7.83376 35.9074 7.03816C37.0074 6.75816 37.379 6.72216 39.0202 6.72216C40.6006 6.72256 40.8206 6.76216 41.947 7.01816C45.8346 7.96416 48.9298 10.4338 50.6658 13.975C51.1122 14.8858 51.3986 15.6646 51.6218 16.5734C52.4602 19.9866 51.8978 23.8158 49.9762 27.8094C49.5842 28.6202 48.9866 29.7082 48.635 30.2454L48.411 30.5854L48.319 30.3694C48.267 30.2494 47.789 29.0946 47.2546 27.8002C46.2478 25.3642 45.6582 23.9906 45.395 23.4694C45.123 22.9286 44.6426 22.6974 43.8762 22.7374C43.4014 22.7774 43.1074 22.8734 42.8446 23.1294C42.6086 23.3614 42.1302 24.349 39.8182 29.3914C39.293 30.537 38.855 31.4826 38.8454 31.4922C38.8454 31.4922 38.5694 30.9946 38.2554 30.3646L38.2578 30.3426Z" fill="#00A8B5"/>
<path d="M72.2188 31.4531H76.8906C76.7969 32.9844 76.375 34.3438 75.625 35.5312C74.8854 36.7188 73.849 37.6458 72.5156 38.3125C71.1927 38.9792 69.599 39.3125 67.7344 39.3125C66.276 39.3125 64.9688 39.0625 63.8125 38.5625C62.6562 38.0521 61.6667 37.3229 60.8438 36.375C60.0312 35.4271 59.4115 34.2812 58.9844 32.9375C58.5573 31.5938 58.3438 30.0885 58.3438 28.4219V26.8438C58.3438 25.1771 58.5625 23.6719 59 22.3281C59.4479 20.974 60.0833 19.8229 60.9062 18.875C61.7396 17.9271 62.7344 17.1979 63.8906 16.6875C65.0469 16.1771 66.3385 15.9219 67.7656 15.9219C69.6615 15.9219 71.2604 16.2656 72.5625 16.9531C73.875 17.6406 74.8906 18.5885 75.6094 19.7969C76.3385 21.0052 76.776 22.3802 76.9219 23.9219H72.2344C72.1823 23.0052 72 22.2292 71.6875 21.5938C71.375 20.9479 70.901 20.4635 70.2656 20.1406C69.6406 19.8073 68.8073 19.6406 67.7656 19.6406C66.9844 19.6406 66.3021 19.7865 65.7188 20.0781C65.1354 20.3698 64.6458 20.8125 64.25 21.4062C63.8542 22 63.5573 22.75 63.3594 23.6562C63.1719 24.5521 63.0781 25.6042 63.0781 26.8125V28.4219C63.0781 29.599 63.1667 30.6354 63.3438 31.5312C63.5208 32.4167 63.7917 33.1667 64.1562 33.7812C64.5312 34.3854 65.0104 34.8438 65.5938 35.1562C66.1875 35.4583 66.901 35.6094 67.7344 35.6094C68.7135 35.6094 69.5208 35.4531 70.1562 35.1406C70.7917 34.8281 71.276 34.3646 71.6094 33.75C71.9531 33.1354 72.1562 32.3698 72.2188 31.4531ZM89.6875 34.9531V22.0938H94.1875V39H89.9531L89.6875 34.9531ZM90.1875 31.4844L91.5156 31.4531C91.5156 32.5781 91.3854 33.625 91.125 34.5938C90.8646 35.5521 90.474 36.3854 89.9531 37.0938C89.4323 37.7917 88.776 38.3385 87.9844 38.7344C87.1927 39.1198 86.2604 39.3125 85.1875 39.3125C84.3646 39.3125 83.6042 39.1979 82.9062 38.9688C82.2188 38.7292 81.625 38.3594 81.125 37.8594C80.6354 37.349 80.25 36.6979 79.9688 35.9062C79.6979 35.1042 79.5625 34.1406 79.5625 33.0156V22.0938H84.0625V33.0469C84.0625 33.5469 84.1198 33.9688 84.2344 34.3125C84.3594 34.6562 84.5312 34.9375 84.75 35.1562C84.9688 35.375 85.224 35.5312 85.5156 35.625C85.8177 35.7188 86.151 35.7656 86.5156 35.7656C87.4427 35.7656 88.1719 35.5781 88.7031 35.2031C89.2448 34.8281 89.625 34.3177 89.8438 33.6719C90.0729 33.0156 90.1875 32.2865 90.1875 31.4844ZM102.125 25.7812V39H97.625V22.0938H101.859L102.125 25.7812ZM107.219 21.9844L107.141 26.1562C106.922 26.125 106.656 26.099 106.344 26.0781C106.042 26.0469 105.766 26.0312 105.516 26.0312C104.88 26.0312 104.328 26.1146 103.859 26.2812C103.401 26.4375 103.016 26.6719 102.703 26.9844C102.401 27.2969 102.172 27.6771 102.016 28.125C101.87 28.5729 101.786 29.0833 101.766 29.6562L100.859 29.375C100.859 28.2812 100.969 27.276 101.188 26.3594C101.406 25.4323 101.724 24.625 102.141 23.9375C102.568 23.25 103.089 22.7188 103.703 22.3438C104.318 21.9688 105.021 21.7812 105.812 21.7812C106.062 21.7812 106.318 21.8021 106.578 21.8438C106.839 21.875 107.052 21.9219 107.219 21.9844ZM116.812 39.3125C115.5 39.3125 114.323 39.1042 113.281 38.6875C112.24 38.2604 111.354 37.6719 110.625 36.9219C109.906 36.1719 109.354 35.3021 108.969 34.3125C108.583 33.3125 108.391 32.25 108.391 31.125V30.5C108.391 29.2188 108.573 28.0469 108.938 26.9844C109.302 25.9219 109.823 25 110.5 24.2188C111.188 23.4375 112.021 22.8385 113 22.4219C113.979 21.9948 115.083 21.7812 116.312 21.7812C117.51 21.7812 118.573 21.9792 119.5 22.375C120.427 22.7708 121.203 23.3333 121.828 24.0625C122.464 24.7917 122.943 25.6667 123.266 26.6875C123.589 27.6979 123.75 28.8229 123.75 30.0625V31.9375H110.312V28.9375H119.328V28.5938C119.328 27.9688 119.214 27.4115 118.984 26.9219C118.766 26.4219 118.432 26.026 117.984 25.7344C117.536 25.4427 116.964 25.2969 116.266 25.2969C115.672 25.2969 115.161 25.4271 114.734 25.6875C114.307 25.9479 113.958 26.3125 113.688 26.7812C113.427 27.25 113.229 27.8021 113.094 28.4375C112.969 29.0625 112.906 29.75 112.906 30.5V31.125C112.906 31.8021 113 32.4271 113.188 33C113.385 33.5729 113.661 34.0677 114.016 34.4844C114.38 34.901 114.818 35.224 115.328 35.4531C115.849 35.6823 116.438 35.7969 117.094 35.7969C117.906 35.7969 118.661 35.6406 119.359 35.3281C120.068 35.0052 120.677 34.5208 121.188 33.875L123.375 36.25C123.021 36.7604 122.536 37.25 121.922 37.7188C121.318 38.1875 120.589 38.5729 119.734 38.875C118.88 39.1667 117.906 39.3125 116.812 39.3125Z" fill="#00A8B5"/>
<path d="M141.766 25.5156V29.1719H129.891V25.5156H141.766ZM131.281 16.25V39H126.594V16.25H131.281ZM145.109 16.25V39H140.438V16.25H145.109ZM158.906 34.9531V22.0938H163.406V39H159.172L158.906 34.9531ZM159.406 31.4844L160.734 31.4531C160.734 32.5781 160.604 33.625 160.344 34.5938C160.083 35.5521 159.693 36.3854 159.172 37.0938C158.651 37.7917 157.995 38.3385 157.203 38.7344C156.411 39.1198 155.479 39.3125 154.406 39.3125C153.583 39.3125 152.823 39.1979 152.125 38.9688C151.438 38.7292 150.844 38.3594 150.344 37.8594C149.854 37.349 149.469 36.6979 149.188 35.9062C148.917 35.1042 148.781 34.1406 148.781 33.0156V22.0938H153.281V33.0469C153.281 33.5469 153.339 33.9688 153.453 34.3125C153.578 34.6562 153.75 34.9375 153.969 35.1562C154.188 35.375 154.443 35.5312 154.734 35.625C155.036 35.7188 155.37 35.7656 155.734 35.7656C156.661 35.7656 157.391 35.5781 157.922 35.2031C158.464 34.8281 158.844 34.3177 159.062 33.6719C159.292 33.0156 159.406 32.2865 159.406 31.4844ZM166.844 15H171.344V35.125L170.891 39H166.844V15ZM182.047 30.375V30.7031C182.047 31.9635 181.911 33.1198 181.641 34.1719C181.38 35.224 180.974 36.1354 180.422 36.9062C179.87 37.6667 179.182 38.2604 178.359 38.6875C177.547 39.1042 176.589 39.3125 175.484 39.3125C174.453 39.3125 173.557 39.1042 172.797 38.6875C172.047 38.2708 171.417 37.6823 170.906 36.9219C170.396 36.1615 169.984 35.2708 169.672 34.25C169.359 33.2292 169.125 32.1146 168.969 30.9062V30.1875C169.125 28.9792 169.359 27.8646 169.672 26.8438C169.984 25.8229 170.396 24.9323 170.906 24.1719C171.417 23.4115 172.047 22.8229 172.797 22.4062C173.547 21.9896 174.432 21.7812 175.453 21.7812C176.568 21.7812 177.536 21.9948 178.359 22.4219C179.193 22.8385 179.88 23.4323 180.422 24.2031C180.974 24.9635 181.38 25.8698 181.641 26.9219C181.911 27.9635 182.047 29.1146 182.047 30.375ZM177.547 30.7031V30.375C177.547 29.6875 177.495 29.0417 177.391 28.4375C177.297 27.8229 177.13 27.2865 176.891 26.8281C176.651 26.3594 176.323 25.9896 175.906 25.7188C175.5 25.4479 174.974 25.3125 174.328 25.3125C173.714 25.3125 173.193 25.4167 172.766 25.625C172.339 25.8333 171.984 26.125 171.703 26.5C171.432 26.875 171.229 27.3229 171.094 27.8438C170.958 28.3542 170.875 28.9167 170.844 29.5312V31.5781C170.875 32.401 171.01 33.1302 171.25 33.7656C171.5 34.3906 171.875 34.8854 172.375 35.25C172.885 35.6042 173.547 35.7812 174.359 35.7812C174.995 35.7812 175.521 35.6562 175.938 35.4062C176.354 35.1562 176.677 34.8021 176.906 34.3438C177.146 33.8854 177.312 33.349 177.406 32.7344C177.5 32.1094 177.547 31.4323 177.547 30.7031Z" fill="black"/>
</svg>
