<svg width="190" height="113" viewBox="0 0 190 113" fill="none" xmlns="http://www.w3.org/2000/svg">
<path d="M94.6691 49.221C93.8795 48.8054 91.2679 46.9982 88.7899 45.1522C85.8819 42.9866 83.7515 41.1554 81.1495 38.5854C79.3171 36.7758 78.1287 35.4806 77.0783 34.1486C76.8663 33.8806 76.6611 33.6226 76.6231 33.5786C76.5631 33.5066 76.5831 33.4826 76.8231 33.3466C77.3943 33.0226 77.5055 32.765 78.7211 28.9274C79.8099 25.4902 79.7059 25.7918 79.7531 25.937C79.7931 26.005 79.9811 26.9418 80.2139 28.0202C80.8823 31.1386 80.9655 31.4222 81.3139 31.7718C81.5539 32.0118 81.9335 32.1862 82.3403 32.2402C82.6443 32.2802 83.1687 32.1322 83.4575 31.9202C83.7775 31.6882 84.2287 30.9938 85.6007 28.619C85.8927 28.1138 86.1455 27.7002 86.1623 27.7002C86.1623 27.7002 86.4343 28.1578 86.7287 28.717C87.8387 30.823 89.0771 33.1302 89.2971 33.503C89.6691 34.1354 90.1171 34.3934 90.8243 34.3862C91.3659 34.3822 91.8151 34.1622 92.1031 33.765C92.2871 33.509 92.6743 32.3054 93.7159 28.7294C94.7047 25.335 95.0543 24.2078 95.0951 24.281C95.1431 24.369 95.6055 26.5626 96.3875 30.4206C97.1047 33.9598 97.6395 36.5238 97.8175 37.2758C97.9255 37.7354 97.9695 37.8422 98.1495 38.0602C98.2815 38.2242 98.4575 38.3642 98.6431 38.4602C98.9071 38.5962 98.9711 38.6082 99.4247 38.6082C99.8523 38.6078 99.9543 38.6082 100.191 38.4802C100.633 38.2722 100.762 38.1002 101.155 37.1786C101.427 36.5426 102.301 34.3626 102.794 33.0942C102.838 32.9822 102.91 33.0942 103.538 34.3442C104.296 35.8382 104.595 36.3714 104.761 36.5318C104.821 36.5878 105.009 36.7038 105.179 36.7838C105.764 37.0598 106.561 36.9518 107.004 36.5278C107.224 36.3198 107.844 35.0806 109.327 31.9002C109.802 30.8802 110.358 29.7118 110.563 29.3038L110.935 28.5618L111.023 28.7338C111.071 28.8258 111.442 29.7134 111.849 30.703C112.73 32.8506 112.831 33.0582 113.121 33.3258L113.345 33.5338L113.225 33.7018C112.989 34.0338 111.9 35.343 111.262 36.0622C110.443 36.9858 108.126 39.305 107.025 40.3046C104.958 42.1802 102.812 43.9486 100.679 45.5334C98.6847 47.0158 95.4707 49.1802 95.0307 49.337C94.9827 49.337 94.8291 49.297 94.6691 49.221ZM105.257 30.3426C104.479 28.7886 104.025 27.9506 103.87 27.7838C103.71 27.6078 103.282 27.3918 102.946 27.3126C102.55 27.2206 102.035 27.3646 101.571 27.7006C101.331 27.8766 101.149 28.2286 100.553 29.689C100.105 30.7878 99.9963 31.0142 99.9439 30.957C99.8959 30.905 99.8919 30.873 98.5147 24.0518C97.3855 18.455 97.0679 16.9514 96.8967 16.3962C96.7767 16.0082 96.5607 15.7746 96.1215 15.5582C95.8815 15.4422 95.7935 15.4222 95.3831 15.4262C94.9723 15.4274 94.8831 15.4262 94.6287 15.5662C94.0775 15.8342 94.0335 15.9062 93.6083 17.2618C93.1139 18.8366 92.9919 19.2462 91.6631 23.781C91.0431 25.8974 90.4887 27.7806 90.4311 27.9658L90.3271 28.3018L90.2151 28.1378C90.0751 27.9258 89.8871 27.5806 88.8995 25.7178C87.7163 23.4834 87.4451 23.073 86.9887 22.8242C86.7567 22.6962 86.6887 22.6842 86.2647 22.6842C85.7163 22.6862 85.5375 22.7482 85.2075 23.0522C84.9115 23.3242 84.6659 23.6738 84.1059 24.613C83.5203 25.5946 83.2735 25.9562 83.2243 25.9046C83.1843 25.8646 82.9483 24.749 82.6631 23.3878C82.0771 20.6098 81.6931 18.8722 81.5823 18.4982C81.4903 18.1902 81.2023 17.9194 80.7287 17.689C80.4607 17.561 80.3487 17.533 80.0635 17.533C79.7675 17.5314 79.6675 17.573 79.3527 17.709C78.7339 18.009 78.7419 17.993 78.1835 19.6774C77.2551 22.4758 75.5299 27.845 74.9827 29.639C74.8667 30.015 74.7667 30.3338 74.7627 30.3438C74.7627 30.3438 74.6907 30.3838 74.6147 30.3838C74.3587 30.3838 74.0579 29.9298 73.2523 28.337C72.0951 26.0494 71.3055 23.681 71.0631 21.7686C70.9791 21.1098 70.9791 18.5442 71.0623 17.8958C71.3423 15.7186 72.3847 13.3298 73.8539 11.499C76.0403 8.77456 79.4295 6.98336 82.9495 6.69216C84.3259 6.57616 86.4103 6.81616 87.8695 7.25456C89.2755 7.67696 90.9047 8.56376 92.2459 9.63736C92.9395 10.1926 93.8527 11.1174 94.3251 11.7442C94.7419 12.2974 94.9395 12.5282 94.9959 12.5282C94.9959 12.5282 95.1599 12.3562 95.3159 12.1482C97.3083 9.49776 99.7799 7.83376 102.907 7.03816C104.007 6.75816 104.378 6.72216 106.019 6.72216C107.6 6.72256 107.82 6.76216 108.946 7.01816C112.834 7.96416 115.929 10.4338 117.665 13.975C118.111 14.8858 118.398 15.6646 118.621 16.5734C119.459 19.9866 118.897 23.8158 116.975 27.8094C116.583 28.6202 115.986 29.7082 115.634 30.2454L115.41 30.5854L115.318 30.3694C115.266 30.2494 114.788 29.0946 114.254 27.8002C113.247 25.3642 112.657 23.9906 112.394 23.4694C112.122 22.9286 111.642 22.6974 110.875 22.7374C110.401 22.7774 110.107 22.8734 109.844 23.1294C109.608 23.3614 109.129 24.349 106.817 29.3914C106.292 30.537 105.854 31.4826 105.845 31.4922C105.845 31.4922 105.569 30.9946 105.255 30.3646L105.257 30.3426Z" fill="#00A8B5"/>
<path d="M22.8281 89.6797H29.8359C29.6953 91.9766 29.0625 94.0156 27.9375 95.7969C26.8281 97.5781 25.2734 98.9688 23.2734 99.9688C21.2891 100.969 18.8984 101.469 16.1016 101.469C13.9141 101.469 11.9531 101.094 10.2188 100.344C8.48438 99.5781 7 98.4844 5.76562 97.0625C4.54688 95.6406 3.61719 93.9219 2.97656 91.9062C2.33594 89.8906 2.01562 87.6328 2.01562 85.1328V82.7656C2.01562 80.2656 2.34375 78.0078 3 75.9922C3.67188 73.9609 4.625 72.2344 5.85938 70.8125C7.10938 69.3906 8.60156 68.2969 10.3359 67.5312C12.0703 66.7656 14.0078 66.3828 16.1484 66.3828C18.9922 66.3828 21.3906 66.8984 23.3438 67.9297C25.3125 68.9609 26.8359 70.3828 27.9141 72.1953C29.0078 74.0078 29.6641 76.0703 29.8828 78.3828H22.8516C22.7734 77.0078 22.5 75.8438 22.0312 74.8906C21.5625 73.9219 20.8516 73.1953 19.8984 72.7109C18.9609 72.2109 17.7109 71.9609 16.1484 71.9609C14.9766 71.9609 13.9531 72.1797 13.0781 72.6172C12.2031 73.0547 11.4688 73.7188 10.875 74.6094C10.2812 75.5 9.83594 76.625 9.53906 77.9844C9.25781 79.3281 9.11719 80.9062 9.11719 82.7188V85.1328C9.11719 86.8984 9.25 88.4531 9.51562 89.7969C9.78125 91.125 10.1875 92.25 10.7344 93.1719C11.2969 94.0781 12.0156 94.7656 12.8906 95.2344C13.7812 95.6875 14.8516 95.9141 16.1016 95.9141C17.5703 95.9141 18.7812 95.6797 19.7344 95.2109C20.6875 94.7422 21.4141 94.0469 21.9141 93.125C22.4297 92.2031 22.7344 91.0547 22.8281 89.6797ZM49.0312 94.9297V75.6406H55.7812V101H49.4297L49.0312 94.9297ZM49.7812 89.7266L51.7734 89.6797C51.7734 91.3672 51.5781 92.9375 51.1875 94.3906C50.7969 95.8281 50.2109 97.0781 49.4297 98.1406C48.6484 99.1875 47.6641 100.008 46.4766 100.602C45.2891 101.18 43.8906 101.469 42.2812 101.469C41.0469 101.469 39.9062 101.297 38.8594 100.953C37.8281 100.594 36.9375 100.039 36.1875 99.2891C35.4531 98.5234 34.875 97.5469 34.4531 96.3594C34.0469 95.1562 33.8438 93.7109 33.8438 92.0234V75.6406H40.5938V92.0703C40.5938 92.8203 40.6797 93.4531 40.8516 93.9688C41.0391 94.4844 41.2969 94.9062 41.625 95.2344C41.9531 95.5625 42.3359 95.7969 42.7734 95.9375C43.2266 96.0781 43.7266 96.1484 44.2734 96.1484C45.6641 96.1484 46.7578 95.8672 47.5547 95.3047C48.3672 94.7422 48.9375 93.9766 49.2656 93.0078C49.6094 92.0234 49.7812 90.9297 49.7812 89.7266ZM67.6875 81.1719V101H60.9375V75.6406H67.2891L67.6875 81.1719ZM75.3281 75.4766L75.2109 81.7344C74.8828 81.6875 74.4844 81.6484 74.0156 81.6172C73.5625 81.5703 73.1484 81.5469 72.7734 81.5469C71.8203 81.5469 70.9922 81.6719 70.2891 81.9219C69.6016 82.1562 69.0234 82.5078 68.5547 82.9766C68.1016 83.4453 67.7578 84.0156 67.5234 84.6875C67.3047 85.3594 67.1797 86.125 67.1484 86.9844L65.7891 86.5625C65.7891 84.9219 65.9531 83.4141 66.2812 82.0391C66.6094 80.6484 67.0859 79.4375 67.7109 78.4062C68.3516 77.375 69.1328 76.5781 70.0547 76.0156C70.9766 75.4531 72.0312 75.1719 73.2188 75.1719C73.5938 75.1719 73.9766 75.2031 74.3672 75.2656C74.7578 75.3125 75.0781 75.3828 75.3281 75.4766ZM89.7188 101.469C87.75 101.469 85.9844 101.156 84.4219 100.531C82.8594 99.8906 81.5312 99.0078 80.4375 97.8828C79.3594 96.7578 78.5312 95.4531 77.9531 93.9688C77.375 92.4688 77.0859 90.875 77.0859 89.1875V88.25C77.0859 86.3281 77.3594 84.5703 77.9062 82.9766C78.4531 81.3828 79.2344 80 80.25 78.8281C81.2812 77.6562 82.5312 76.7578 84 76.1328C85.4688 75.4922 87.125 75.1719 88.9688 75.1719C90.7656 75.1719 92.3594 75.4688 93.75 76.0625C95.1406 76.6562 96.3047 77.5 97.2422 78.5938C98.1953 79.6875 98.9141 81 99.3984 82.5312C99.8828 84.0469 100.125 85.7344 100.125 87.5938V90.4062H79.9688V85.9062H93.4922V85.3906C93.4922 84.4531 93.3203 83.6172 92.9766 82.8828C92.6484 82.1328 92.1484 81.5391 91.4766 81.1016C90.8047 80.6641 89.9453 80.4453 88.8984 80.4453C88.0078 80.4453 87.2422 80.6406 86.6016 81.0312C85.9609 81.4219 85.4375 81.9688 85.0312 82.6719C84.6406 83.375 84.3438 84.2031 84.1406 85.1562C83.9531 86.0938 83.8594 87.125 83.8594 88.25V89.1875C83.8594 90.2031 84 91.1406 84.2812 92C84.5781 92.8594 84.9922 93.6016 85.5234 94.2266C86.0703 94.8516 86.7266 95.3359 87.4922 95.6797C88.2734 96.0234 89.1562 96.1953 90.1406 96.1953C91.3594 96.1953 92.4922 95.9609 93.5391 95.4922C94.6016 95.0078 95.5156 94.2812 96.2812 93.3125L99.5625 96.875C99.0312 97.6406 98.3047 98.375 97.3828 99.0781C96.4766 99.7812 95.3828 100.359 94.1016 100.812C92.8203 101.25 91.3594 101.469 89.7188 101.469Z" fill="#00A8B5"/>
<path d="M127.148 80.7734V86.2578H109.336V80.7734H127.148ZM111.422 66.875V101H104.391V66.875H111.422ZM132.164 66.875V101H125.156V66.875H132.164ZM152.859 94.9297V75.6406H159.609V101H153.258L152.859 94.9297ZM153.609 89.7266L155.602 89.6797C155.602 91.3672 155.406 92.9375 155.016 94.3906C154.625 95.8281 154.039 97.0781 153.258 98.1406C152.477 99.1875 151.492 100.008 150.305 100.602C149.117 101.18 147.719 101.469 146.109 101.469C144.875 101.469 143.734 101.297 142.688 100.953C141.656 100.594 140.766 100.039 140.016 99.2891C139.281 98.5234 138.703 97.5469 138.281 96.3594C137.875 95.1562 137.672 93.7109 137.672 92.0234V75.6406H144.422V92.0703C144.422 92.8203 144.508 93.4531 144.68 93.9688C144.867 94.4844 145.125 94.9062 145.453 95.2344C145.781 95.5625 146.164 95.7969 146.602 95.9375C147.055 96.0781 147.555 96.1484 148.102 96.1484C149.492 96.1484 150.586 95.8672 151.383 95.3047C152.195 94.7422 152.766 93.9766 153.094 93.0078C153.438 92.0234 153.609 90.9297 153.609 89.7266ZM164.766 65H171.516V95.1875L170.836 101H164.766V65ZM187.57 88.0625V88.5547C187.57 90.4453 187.367 92.1797 186.961 93.7578C186.57 95.3359 185.961 96.7031 185.133 97.8594C184.305 99 183.273 99.8906 182.039 100.531C180.82 101.156 179.383 101.469 177.727 101.469C176.18 101.469 174.836 101.156 173.695 100.531C172.57 99.9062 171.625 99.0234 170.859 97.8828C170.094 96.7422 169.477 95.4062 169.008 93.875C168.539 92.3438 168.188 90.6719 167.953 88.8594V87.7812C168.188 85.9688 168.539 84.2969 169.008 82.7656C169.477 81.2344 170.094 79.8984 170.859 78.7578C171.625 77.6172 172.57 76.7344 173.695 76.1094C174.82 75.4844 176.148 75.1719 177.68 75.1719C179.352 75.1719 180.805 75.4922 182.039 76.1328C183.289 76.7578 184.32 77.6484 185.133 78.8047C185.961 79.9453 186.57 81.3047 186.961 82.8828C187.367 84.4453 187.57 86.1719 187.57 88.0625ZM180.82 88.5547V88.0625C180.82 87.0312 180.742 86.0625 180.586 85.1562C180.445 84.2344 180.195 83.4297 179.836 82.7422C179.477 82.0391 178.984 81.4844 178.359 81.0781C177.75 80.6719 176.961 80.4688 175.992 80.4688C175.07 80.4688 174.289 80.625 173.648 80.9375C173.008 81.25 172.477 81.6875 172.055 82.25C171.648 82.8125 171.344 83.4844 171.141 84.2656C170.938 85.0312 170.812 85.875 170.766 86.7969V89.8672C170.812 91.1016 171.016 92.1953 171.375 93.1484C171.75 94.0859 172.312 94.8281 173.062 95.375C173.828 95.9062 174.82 96.1719 176.039 96.1719C176.992 96.1719 177.781 95.9844 178.406 95.6094C179.031 95.2344 179.516 94.7031 179.859 94.0156C180.219 93.3281 180.469 92.5234 180.609 91.6016C180.75 90.6641 180.82 89.6484 180.82 88.5547Z" fill="black"/>
</svg>
