<svg width="32" height="33" viewBox="0 0 32 33" fill="none" xmlns="http://www.w3.org/2000/svg">
<rect y="0.5" width="32" height="32" rx="16" fill="#FF0000" fill-opacity="0.2"/>
<path d="M17.6791 16.5001L23.5591 10.6201C23.7782 10.3966 23.9002 10.0956 23.8986 9.78259C23.897 9.46959 23.772 9.16987 23.5507 8.94854C23.3294 8.72722 23.0296 8.60218 22.7166 8.6006C22.4036 8.59902 22.1027 8.72102 21.8791 8.9401L15.9991 14.8201L10.1191 8.9401C9.89558 8.72102 9.5946 8.59902 9.28161 8.6006C8.96861 8.60218 8.66889 8.72722 8.44757 8.94854C8.22624 9.16987 8.10121 9.46959 8.09962 9.78259C8.09804 10.0956 8.22005 10.3966 8.43912 10.6201L14.3191 16.5001L8.43912 22.3801C8.22005 22.6036 8.09804 22.9046 8.09962 23.2176C8.10121 23.5306 8.22624 23.8303 8.44757 24.0517C8.66889 24.273 8.96861 24.398 9.28161 24.3996C9.5946 24.4012 9.89558 24.2792 10.1191 24.0601L15.9991 18.1801L21.8791 24.0601C22.1027 24.2792 22.4036 24.4012 22.7166 24.3996C23.0296 24.398 23.3294 24.273 23.5507 24.0517C23.772 23.8303 23.897 23.5306 23.8986 23.2176C23.9002 22.9046 23.7782 22.6036 23.5591 22.3801L17.6791 16.5001Z" fill="#FF0000"/>
</svg>
