<svg width="41" height="50" viewBox="0 0 41 50" fill="none" xmlns="http://www.w3.org/2000/svg">
<path d="M34.5006 48.3334H6.50065C5.26297 48.3334 4.07599 47.8417 3.20082 46.9665C2.32565 46.0914 1.83398 44.9044 1.83398 43.6667V6.33338C1.83398 5.09571 2.32565 3.90872 3.20082 3.03355C4.07599 2.15838 5.26297 1.66672 6.50065 1.66672H23.0673C23.716 1.64384 24.3623 1.75653 24.965 1.99759C25.5676 2.23866 26.1134 2.60279 26.5673 3.06672L38.0006 15.2001C38.7948 16.0986 39.2126 17.2684 39.1673 18.4667V43.6667C39.1673 44.9044 38.6757 46.0914 37.8005 46.9665C36.9253 47.8417 35.7383 48.3334 34.5006 48.3334Z" stroke="#00A8B5" stroke-width="3" stroke-linecap="round" stroke-linejoin="round"/>
<path d="M20.5 36.6665V22.6665" stroke="#00A8B5" stroke-width="3" stroke-linecap="round" stroke-linejoin="round"/>
<path d="M13.5 29.6665H27.5" stroke="#00A8B5" stroke-width="3" stroke-linecap="round" stroke-linejoin="round"/>
</svg>
