<svg width="18" height="20" viewBox="0 0 18 20" fill="none" xmlns="http://www.w3.org/2000/svg">
<path d="M7.79976 10.1372C10.616 10.137 11.6293 7.31722 11.8946 5.00095C12.2213 2.14755 10.872 0 7.79976 0C4.72793 0 3.37789 2.14739 3.70492 5.00095C3.97044 7.31722 4.98345 10.1374 7.79976 10.1372Z" fill="white"/>
<path d="M13.9578 11.311C14.0484 11.311 14.1384 11.3137 14.2278 11.3187C14.0938 11.1275 13.9387 10.9589 13.7571 10.8233C13.216 10.4195 12.5151 10.2869 11.8956 10.0435C11.594 9.92501 11.3239 9.80733 11.0704 9.67334C10.2147 10.6117 9.09883 11.1026 7.79942 11.1028C6.50044 11.1028 5.38469 10.6119 4.5291 9.67334C4.27557 9.80736 4.00544 9.92501 3.7039 10.0435C3.08433 10.287 2.38351 10.4195 1.84233 10.8233C0.90645 11.5219 0.664587 13.0933 0.474554 14.1652C0.317724 15.05 0.212365 15.953 0.181613 16.8517C0.157789 17.5479 0.501515 17.6455 1.08393 17.8557C1.81318 18.1187 2.56616 18.314 3.32419 18.474C4.78815 18.7832 6.29717 19.0207 7.79969 19.0313C8.52772 19.0261 9.25723 18.9674 9.98243 18.8734C9.44547 18.0954 9.13053 17.153 9.13053 16.1383C9.13057 13.4765 11.296 11.311 13.9578 11.311Z" fill="white"/>
<path d="M13.9577 12.2764C11.825 12.2764 10.0959 14.0054 10.0959 16.1382C10.0959 18.2709 11.825 20 13.9577 20C16.0905 20 17.8196 18.2709 17.8196 16.1382C17.8195 14.0054 16.0905 12.2764 13.9577 12.2764ZM15.6473 16.8007H14.6203V17.8276C14.6203 18.1936 14.3237 18.4903 13.9578 18.4903C13.5918 18.4903 13.2952 18.1936 13.2952 17.8276V16.8007H12.2682C11.9023 16.8007 11.6056 16.5041 11.6056 16.1381C11.6056 15.7722 11.9023 15.4755 12.2682 15.4755H13.2952V14.4486C13.2952 14.0826 13.5918 13.7859 13.9578 13.7859C14.3237 13.7859 14.6203 14.0826 14.6203 14.4486V15.4755H15.6473C16.0132 15.4755 16.3099 15.7722 16.3099 16.1381C16.3099 16.5041 16.0133 16.8007 15.6473 16.8007Z" fill="white"/>
</svg>
