<svg width="77" height="68" viewBox="0 0 77 68" fill="none" xmlns="http://www.w3.org/2000/svg">
<path d="M60.9689 67.2631C59.4871 67.2699 54.2484 66.6583 49.1753 65.8855C43.2224 64.9797 38.6704 63.9574 32.8506 62.2199C28.7524 60.9968 25.9996 60.0253 23.4204 58.8921C22.9005 58.6647 22.3984 58.4465 22.3083 58.4117C22.1642 58.3529 22.1748 58.3021 22.4205 57.9155C23.0051 56.9948 22.9671 56.5304 21.7549 49.956C20.6692 44.0675 20.7521 44.5908 20.9346 44.7668C21.0462 44.8353 22.0528 46.062 23.2355 47.4613C26.6485 51.5114 26.9918 51.8622 27.7753 52.1029C28.3144 52.2675 29.007 52.227 29.6455 51.9887C30.1224 51.8102 30.7757 51.184 31.0336 50.6479C31.3217 50.0581 31.4414 48.6881 31.5998 44.1361C31.6337 43.1676 31.6816 42.364 31.7062 42.3509C31.7062 42.3509 32.462 42.8095 33.3299 43.3996C36.6004 45.6209 40.2161 48.0371 40.8295 48.4119C41.8683 49.0488 42.7264 49.0775 43.7575 48.5151C44.5484 48.0867 45.0353 47.4137 45.1476 46.6066C45.2176 46.0878 44.8461 44.0212 43.5829 37.966C42.384 32.2183 42.017 30.293 42.1339 30.3685C42.273 30.4601 44.6624 33.3151 48.8191 38.3608C52.6319 42.9897 55.4165 46.3313 56.2642 47.2948C56.7812 47.8843 56.929 48.0066 57.363 48.1857C57.6844 48.3232 58.0517 48.3911 58.3987 48.387C58.8918 48.3804 58.995 48.348 59.66 47.9941C60.2866 47.6599 60.4364 47.5809 60.6837 47.2085C61.1699 46.5584 61.2246 46.2057 61.0807 44.5485C60.9833 43.4039 60.5636 39.526 60.297 37.2817C60.2741 37.0832 60.467 37.1912 62.3636 38.5334C64.6405 40.1322 65.494 40.6811 65.8631 40.7864C65.9947 40.8216 66.3609 40.845 66.6731 40.8293C67.7458 40.7777 68.8296 39.9976 69.1479 39.0306C69.3082 38.554 69.2508 36.2532 68.9425 30.4341C68.8439 28.5677 68.7473 26.421 68.7286 25.6634L68.695 24.2853L68.9582 24.4688C69.1004 24.5662 70.3377 25.5775 71.7056 26.7112C74.6737 29.1717 74.9835 29.3974 75.6174 29.5634L76.1081 29.6936L76.0633 30.0335C75.9763 30.7044 75.4016 33.4732 75.0269 35.0257C74.5472 37.0185 72.9603 42.2262 72.1259 44.5508C70.5582 48.9137 68.7919 53.1806 66.9024 57.1678C65.1352 60.8971 62.1122 66.5779 61.5895 67.151C61.5192 67.1885 61.2628 67.2497 60.9689 67.2631ZM61.7611 31.3259C59.4086 29.6545 58.0892 28.7802 57.7315 28.6568C57.3596 28.5236 56.5625 28.5415 56.0087 28.6873C55.3564 28.8614 54.7134 29.4745 54.296 30.3288C54.0814 30.774 54.0893 31.4321 54.3556 34.0378C54.5556 35.9985 54.5727 36.4153 54.4513 36.3723C54.3403 36.3335 54.3095 36.2897 46.9683 27.3644C40.9459 20.0405 39.3072 18.084 38.623 17.4036C38.1443 16.9284 37.6454 16.7545 36.8327 16.78C36.3903 16.7972 36.2457 16.8365 35.6472 17.1626C35.0459 17.4849 34.9142 17.5527 34.6505 17.9565C34.0515 18.7794 34.0432 18.9193 34.4775 21.2384C34.9815 23.9328 35.1222 24.6285 36.7125 32.3133C37.4549 35.8997 38.1115 39.0931 38.1716 39.4095L38.2813 39.9833L37.9891 39.8302C37.6185 39.6287 37.0735 39.2693 34.1722 37.309C30.6942 34.9565 29.9764 34.5665 29.1132 34.5579C28.6732 34.5512 28.5642 34.5867 27.9426 34.9175C27.1402 35.3483 26.9265 35.5787 26.6799 36.2819C26.4582 36.9116 26.3709 37.6158 26.2827 39.4296C26.1901 41.3255 26.1105 42.0482 25.9981 42.0109C25.9082 41.9835 24.6918 40.5322 23.2116 38.7592C20.185 35.1438 18.2663 32.8961 17.812 32.4343C17.4368 32.0545 16.8033 31.8822 15.9293 31.914C15.4365 31.9355 15.2505 31.9818 14.8324 32.2043C14.3972 32.4329 14.283 32.5719 13.9277 33.0169C13.2546 33.9396 13.2538 33.9099 13.7494 36.8149C14.5719 41.6418 16.232 50.8591 16.8296 53.9161C16.9529 54.5578 17.0551 55.1032 17.057 55.121C17.057 55.121 16.9827 55.2358 16.8712 55.2951C16.4959 55.4949 15.7007 55.064 13.2769 53.3575C9.79557 50.9068 6.79006 48.0508 4.94254 45.4363C4.30537 44.5361 2.30355 40.7749 1.91961 39.7594C0.631327 36.3491 0.295628 32.0338 1.021 28.2035C2.10056 22.5035 5.67157 17.2332 10.6047 14.0598C12.532 12.8158 15.775 11.5413 18.2563 11.0455C20.6471 10.5677 23.7274 10.5965 26.5313 11.124C27.9813 11.3967 30.0417 12.04 31.2233 12.5903C32.2659 13.076 32.7357 13.2602 32.8184 13.2162C32.8184 13.2162 32.9246 12.8361 32.991 12.4094C33.8439 6.96937 36.1689 2.60146 40.1321 -1.00459C41.5262 -2.27335 42.0429 -2.61607 44.4489 -3.89662C46.7661 -5.12914 47.1195 -5.24274 48.9706 -5.74632C55.4079 -7.39278 61.8724 -6.18736 67.1805 -2.35046C68.5455 -1.36352 69.5731 -0.445252 70.6094 0.712902C74.5016 5.06252 76.6649 11.115 76.9638 18.4689C77.0218 19.9634 76.9946 22.0247 76.8983 23.0866L76.8352 23.7598L76.5318 23.515C76.3619 23.3796 74.7601 22.0596 72.9668 20.579C69.5901 17.7934 67.654 16.2397 66.8615 15.681C66.0407 15.1004 65.1561 15.1363 64.0637 15.7929C63.3989 16.222 63.0428 16.5921 62.8573 17.1725C62.6923 17.6967 62.7615 19.5178 63.3065 28.714C63.4304 30.8032 63.5261 32.5312 63.5195 32.5528C63.5195 32.5528 62.7266 32.0387 61.7747 31.3601L61.7611 31.3259Z" fill="white" fill-opacity="0.4"/>
</svg>
