<svg width="32" height="33" viewBox="0 0 32 33" fill="none" xmlns="http://www.w3.org/2000/svg">
<rect y="0.5" width="32" height="32" rx="16" fill="#D4F3E1"/>
<path d="M25.3208 9.76781C24.7808 9.34781 24.0608 9.40781 23.6408 9.94781L14.7608 20.6878L8.16082 15.8878C7.62082 15.5278 6.90082 15.5878 6.48082 16.1278C6.12082 16.6678 6.18082 17.3878 6.72082 17.8078L14.2208 23.2678C14.2287 23.2676 14.2366 23.2691 14.244 23.272C14.2513 23.275 14.258 23.2794 14.2636 23.285C14.2692 23.2906 14.2736 23.2973 14.2766 23.3047C14.2795 23.312 14.281 23.3199 14.2808 23.3278C14.3408 23.3278 14.3408 23.3878 14.4008 23.3878C14.4608 23.3878 14.4608 23.4478 14.5208 23.4478C14.5808 23.4478 14.5808 23.4478 14.6408 23.5078H15.3608C15.4208 23.5078 15.4208 23.5078 15.4808 23.4478C15.5408 23.4478 15.5408 23.3878 15.6008 23.3878C15.6608 23.3878 15.6608 23.3278 15.7208 23.3278C15.7808 23.3278 15.7808 23.2678 15.8408 23.2678C15.8487 23.268 15.8566 23.2665 15.864 23.2636C15.8713 23.2606 15.878 23.2562 15.8836 23.2506C15.8892 23.245 15.8936 23.2383 15.8966 23.231C15.8995 23.2236 15.901 23.2157 15.9008 23.2078L15.9608 23.1478L25.5608 11.5078C25.8608 10.9678 25.8008 10.1878 25.3208 9.76781Z" fill="#29C36A"/>
</svg>
